<?xml version="1.0" encoding="UTF-8"?>
<svg width="1534px" height="388px" viewBox="0 0 1534 388" version="1.1" xmlns="http://www.w3.org/2000/svg" xmlns:xlink="http://www.w3.org/1999/xlink">
    <!-- Generator: Sketch 52.6 (67491) - http://www.bohemiancoding.com/sketch -->
    <title>logo-with-name</title>
    <desc>Created with Sketch.</desc>
    <g id="logo-with-name" stroke="none" stroke-width="1" fill="none" fill-rule="evenodd">
        <polygon id="L" fill="#FFFFFF" points="626.793945 285 504.235352 285 504.235352 109.951172 539.269531 109.951172 539.269531 249.96582 626.793945 249.96582"></polygon>
        <path d="M769.462695,215.053711 L769.462695,180.019531 C769.462695,175.218075 768.547177,170.681174 766.716113,166.408691 C764.885049,162.136209 762.382633,158.413102 759.208789,155.239258 C756.034945,152.065414 752.311838,149.562997 748.039355,147.731934 C743.766873,145.90087 739.229972,144.985352 734.428516,144.985352 C729.627059,144.985352 725.090158,145.90087 720.817676,147.731934 C716.545193,149.562997 712.822086,152.065414 709.648242,155.239258 C706.474398,158.413102 703.971982,162.136209 702.140918,166.408691 C700.309854,170.681174 699.394336,175.218075 699.394336,180.019531 L699.394336,215.053711 L769.462695,215.053711 Z M804.496875,285 L769.462695,285 L769.462695,249.96582 L699.394336,249.96582 L699.394336,285 L664.482227,285 L664.482227,180.019531 C664.482227,170.335238 666.313263,161.241091 669.975391,152.736816 C673.637518,144.232542 678.622006,136.806672 684.929004,130.458984 C691.236002,124.111296 698.641526,119.106464 707.145801,115.444336 C715.650075,111.782208 724.744222,109.951172 734.428516,109.951172 C744.112809,109.951172 753.206956,111.782208 761.71123,115.444336 C770.215505,119.106464 777.641375,124.111296 783.989063,130.458984 C790.33675,136.806672 795.341583,144.232542 799.003711,152.736816 C802.665839,161.241091 804.496875,170.335238 804.496875,180.019531 L804.496875,285 Z" id="A" fill="#FFFFFF"></path>
        <path d="M891.669531,144.985352 L891.669531,215.053711 L926.703711,215.053711 C931.505167,215.053711 936.021724,214.138193 940.253516,212.307129 C944.485308,210.476065 948.18807,207.973649 951.361914,204.799805 C954.535758,201.625961 957.038174,197.902853 958.869238,193.630371 C960.700302,189.357889 961.61582,184.820988 961.61582,180.019531 C961.61582,175.218075 960.700302,170.681174 958.869238,166.408691 C957.038174,162.136209 954.535758,158.413102 951.361914,155.239258 C948.18807,152.065414 944.485308,149.562997 940.253516,147.731934 C936.021724,145.90087 931.505167,144.985352 926.703711,144.985352 L891.669531,144.985352 Z M891.669531,285 L856.635352,285 L856.635352,109.951172 L926.703711,109.951172 C933.13278,109.951172 939.317614,110.785311 945.258398,112.453613 C951.199183,114.121916 956.753327,116.481918 961.920996,119.533691 C967.088665,122.585464 971.80867,126.247537 976.081152,130.52002 C980.353635,134.792502 984.015707,139.532852 987.06748,144.741211 C990.119254,149.94957 992.479256,155.524059 994.147559,161.464844 C995.815861,167.405629 996.65,173.590463 996.65,180.019531 C996.65,189.622444 994.818964,198.675901 991.156836,207.180176 C987.494708,215.68445 982.489875,223.11032 976.142188,229.458008 C969.7945,235.805696 962.36863,240.810529 953.864355,244.472656 C945.360081,248.134784 936.306624,249.96582 926.703711,249.96582 L891.669531,249.96582 L891.669531,285 Z" id="P" fill="#FFFFFF"></path>
        <path d="M1176.89687,215.053711 C1176.89687,224.738004 1175.06584,233.832151 1171.40371,242.336426 C1167.74158,250.8407 1162.73675,258.246225 1156.38906,264.553223 C1150.04137,270.86022 1142.6155,275.844708 1134.11123,279.506836 C1125.60696,283.168964 1116.51281,285 1106.82852,285 C1097.14422,285 1088.05008,283.168964 1079.5458,279.506836 C1071.04153,275.844708 1063.636,270.86022 1057.329,264.553223 C1051.02201,258.246225 1046.03752,250.8407 1042.37539,242.336426 C1038.71326,233.832151 1036.88223,224.738004 1036.88223,215.053711 L1036.88223,109.951172 L1071.79434,109.951172 L1071.79434,215.053711 C1071.79434,219.855167 1072.70985,224.371724 1074.54092,228.603516 C1076.37198,232.835308 1078.8744,236.53807 1082.04824,239.711914 C1085.22209,242.885758 1088.94519,245.388174 1093.21768,247.219238 C1097.49016,249.050302 1102.02706,249.96582 1106.82852,249.96582 C1111.62997,249.96582 1116.16687,249.050302 1120.43936,247.219238 C1124.71184,245.388174 1128.43495,242.885758 1131.60879,239.711914 C1134.78263,236.53807 1137.28505,232.835308 1139.11611,228.603516 C1140.94718,224.371724 1141.8627,219.855167 1141.8627,215.053711 L1141.8627,109.951172 L1176.89687,109.951172 L1176.89687,215.053711 Z" id="U" fill="#FFFFFF"></path>
        <polygon id="T" fill="#FFFFFF" points="1302.52168 285 1267.60957 285 1267.60957 144.985352 1214.99727 144.985352 1214.99727 109.951172 1355.01191 109.951172 1355.01191 144.985352 1302.52168 144.985352"></polygon>
        <path d="M1498.2627,215.053711 L1498.2627,180.019531 C1498.2627,175.218075 1497.34718,170.681174 1495.51611,166.408691 C1493.68505,162.136209 1491.18263,158.413102 1488.00879,155.239258 C1484.83495,152.065414 1481.11184,149.562997 1476.83936,147.731934 C1472.56687,145.90087 1468.02997,144.985352 1463.22852,144.985352 C1458.42706,144.985352 1453.89016,145.90087 1449.61768,147.731934 C1445.34519,149.562997 1441.62209,152.065414 1438.44824,155.239258 C1435.2744,158.413102 1432.77198,162.136209 1430.94092,166.408691 C1429.10985,170.681174 1428.19434,175.218075 1428.19434,180.019531 L1428.19434,215.053711 L1498.2627,215.053711 Z M1533.29688,285 L1498.2627,285 L1498.2627,249.96582 L1428.19434,249.96582 L1428.19434,285 L1393.28223,285 L1393.28223,180.019531 C1393.28223,170.335238 1395.11326,161.241091 1398.77539,152.736816 C1402.43752,144.232542 1407.42201,136.806672 1413.729,130.458984 C1420.036,124.111296 1427.44153,119.106464 1435.9458,115.444336 C1444.45008,111.782208 1453.54422,109.951172 1463.22852,109.951172 C1472.91281,109.951172 1482.00696,111.782208 1490.51123,115.444336 C1499.0155,119.106464 1506.44137,124.111296 1512.78906,130.458984 C1519.13675,136.806672 1524.14158,144.232542 1527.80371,152.736816 C1531.46584,161.241091 1533.29688,170.335238 1533.29688,180.019531 L1533.29688,285 Z" id="A" fill="#FFFFFF"></path>
        <g id="Icon" transform="translate(-62.000000, -62.000000)">
            <g id="Glyph" transform="translate(33.000000, 33.000000)">
                <rect id="top" fill="#F6D87C" fill-rule="nonzero" transform="translate(222.994949, 98.994949) rotate(45.000000) translate(-222.994949, -98.994949) " x="152.994949" y="28.9949494" width="140" height="140" rx="70"></rect>
                <rect id="bottom" fill="#D04863" fill-rule="nonzero" transform="translate(222.994949, 346.994949) rotate(45.000000) translate(-222.994949, -346.994949) " x="152.994949" y="276.994949" width="140" height="140" rx="70"></rect>
                <rect id="left" fill="#57CA81" fill-rule="nonzero" transform="translate(98.994949, 222.994949) rotate(45.000000) translate(-98.994949, -222.994949) " x="28.9949494" y="152.994949" width="140" height="140" rx="70"></rect>
                <path d="M353.923882,157.923882 L353.923882,157.923882 C389.82239,157.923882 418.923882,187.025373 418.923882,222.923882 L418.923882,222.923882 C418.923882,258.82239 389.82239,287.923882 353.923882,287.923882 L353.923882,287.923882 C318.025373,287.923882 288.923882,258.82239 288.923882,222.923882 L288.923882,222.923882 C288.923882,187.025373 318.025373,157.923882 353.923882,157.923882 Z" id="right" fill="#23C4F8" fill-rule="nonzero" transform="translate(353.923882, 222.923882) rotate(45.000000) translate(-353.923882, -222.923882) "></path>
            </g>
        </g>
    </g>
</svg>