<?xml version="1.0" encoding="UTF-8"?>
<svg width="460px" height="460px" viewBox="0 0 460 460" version="1.1" xmlns="http://www.w3.org/2000/svg" xmlns:xlink="http://www.w3.org/1999/xlink">
    <!-- Generator: Sketch 55.2 (78181) - https://sketchapp.com -->
    <title>Untitled</title>
    <desc>Created with Sketch.</desc>
    <g id="Page-1" stroke="none" stroke-width="1" fill="none" fill-rule="evenodd">
        <g id="nintendo-switch" fill="#FFFFFF" fill-rule="nonzero">
            <path d="M98.432,1.526 C52.646,9.738 15.791,43.616 4.191,88.17 C-0.017,104.288 -0.326,113.732 0.188,238.568 C0.392,353.134 0.496,355.803 2.446,364.736 C13.02,412.47 46.898,446.454 95.148,457.642 C101.41,459.079 109.417,459.387 160.952,459.593 C214.232,460.004 219.776,459.9 221.213,458.462 C222.649,457.025 222.753,438.649 222.753,230.353 C222.753,75.85 222.446,3.168 221.83,1.832 C220.906,0.088 219.264,-0.015 163.417,0.088 C118.041,0.192 104.388,0.5 98.432,1.526 Z M184.564,230.046 L184.564,422.942 L145.758,422.43 C110.033,422.019 106.235,421.816 99.049,420.071 C68.355,412.164 45.666,388.551 39.198,357.755 C37.145,348.106 37.145,111.269 39.095,101.824 C44.844,75.029 63.426,52.856 88.371,42.898 C100.895,37.867 106.747,37.252 147.503,37.149 L184.357,37.046 L184.357,230.046 L184.564,230.046 Z M106.645,95.357 C100.691,96.486 91.555,101.107 86.627,105.315 C76.669,113.938 71.639,126.257 72.46,140.732 C72.871,148.227 73.281,150.28 76.361,156.336 C80.878,165.575 87.55,172.351 96.791,176.868 C103.156,180.051 104.798,180.359 113.113,180.667 C120.606,180.973 123.276,180.667 128.307,178.92 C148.941,171.939 161.466,151.92 157.872,131.287 C153.869,106.957 130.565,90.533 106.645,95.357 Z M269.052,0.602 C268.643,0.91 268.439,104.082 268.439,230.046 C268.439,437.728 268.54,458.773 269.977,459.388 C272.543,460.312 346.458,460.005 355.596,458.977 C394.297,454.563 428.484,431.054 446.962,396.15 C449.323,391.633 452.505,384.139 454.148,379.519 C460.103,361.655 460.000115,366.378 460.000115,229.533 C460.000115,120.304 459.797,103.981 458.46,97.104 C449.017,47.518 411.136,10.047 361.448,1.527 C354.774,0.398 344.509,0.09 311.349,0.09 C288.353,-0.014 269.362,0.294 269.052,0.602 Z M370.789,208.077 C385.675,211.979 397.788,223.27 402.819,237.745 C406,246.678 405.899,259.816 402.714,268.032 C396.865,283.121 385.469,293.695 370.789,297.596 C346.972,303.757 321.614,289.385 314.735,265.773 C312.682,258.585 312.786,246.368 315.145,238.874 C322.231,215.571 346.972,201.815 370.789,208.077 L370.789,208.077 Z" id="Shape"></path>
        </g>
    </g>
</svg>